<svg aria-hidden="true" style="position: absolute; width: 0; height: 0; overflow: hidden;" version="1.1" xmlns="http://www.w3.org/2000/svg" xmlns:xlink="http://www.w3.org/1999/xlink">
<defs>
<symbol id="icon-event_note" viewBox="0 0 24 24">
<path d="M14.016 14.016v1.969h-7.031v-1.969h7.031zM18.984 18.984v-10.969h-13.969v10.969h13.969zM18.984 3q0.797 0 1.406 0.609t0.609 1.406v13.969q0 0.797-0.609 1.406t-1.406 0.609h-13.969q-0.844 0-1.43-0.586t-0.586-1.43v-13.969q0-0.797 0.586-1.406t1.43-0.609h0.984v-2.016h2.016v2.016h7.969v-2.016h2.016v2.016h0.984zM17.016 9.984v2.016h-10.031v-2.016h10.031z"></path>
</symbol>
<symbol id="icon-extension" viewBox="0 0 24 24">
<path d="M20.484 11.016q1.031 0 1.781 0.727t0.75 1.758-0.75 1.758-1.781 0.727h-1.5v4.031q0 0.797-0.586 1.383t-1.383 0.586h-3.797v-1.5q0-1.125-0.797-1.898t-1.922-0.773-1.922 0.773-0.797 1.898v1.5h-3.797q-0.797 0-1.383-0.586t-0.586-1.383v-3.797h1.5q1.125 0 1.898-0.797t0.773-1.922-0.773-1.922-1.898-0.797h-1.5v-3.797q0-0.797 0.586-1.383t1.383-0.586h4.031v-1.5q0-1.031 0.727-1.781t1.758-0.75 1.758 0.75 0.727 1.781v1.5h4.031q0.797 0 1.383 0.586t0.586 1.383v4.031h1.5z"></path>
</symbol>
<symbol id="icon-graph" viewBox="0 0 24 24">
<path d="M22.998 22.002h-1.998v-1.002h-1.002v1.002h-1.995v-1.002h-1.002v1.002h-1.998v-1.002h-1.002v1.002h-1.998v-1.002h-1.002v1.002h-1.998v-1.002h-1.002v1.002h-4.401l5.27-3.167 2.608-7.622 3.874 6.809 7.507-12.508-1.714-1.030-5.747 9.576-4.376-7.691-3.809 11.128-5.215 3.134v-20.631h-1.998v24h24v-3h-1.002zM22.998 0h1.002v1.002h-1.002zM19.998 0h1.002v1.002h-1.002zM17.001 0h1.002v1.002h-1.002zM14.001 0h1.002v1.002h-1.002zM11.001 0h1.002v1.002h-1.002zM8.001 0h1.002v1.002h-1.002zM5.001 0h1.002v1.002h-1.002zM2.001 0h1.002v1.002h-1.002zM22.998 3h1.002v1.002h-1.002zM19.998 3h1.002v1.002h-1.002zM17.001 3h1.002v1.002h-1.002zM14.001 3h1.002v1.002h-1.002zM11.001 3h1.002v1.002h-1.002zM8.001 3h1.002v1.002h-1.002zM5.001 3h1.002v1.002h-1.002zM2.001 3h1.002v1.002h-1.002zM22.998 5.997h1.002v1.002h-1.002zM17.001 5.997h1.002v1.002h-1.002zM14.001 5.997h1.002v1.002h-1.002zM8.001 5.997h1.002v1.002h-1.002zM5.001 5.997h1.002v1.002h-1.002zM2.001 5.997h1.002v1.002h-1.002zM22.998 8.997h1.002v1.002h-1.002zM14.001 8.997h1.002v1.002h-1.002zM8.001 8.997h1.002v1.002h-1.002zM5.001 8.997h1.002v1.002h-1.002zM2.001 8.997h1.002v1.002h-1.002zM22.998 11.999h1.002v1.002h-1.002zM19.998 11.999h1.002v1.002h-1.002zM5.001 11.999h1.002v1.002h-1.002zM2.001 11.999h1.002v1.002h-1.002zM22.998 14.999h1.002v1.002h-1.002zM19.998 14.999h1.002v1.002h-1.002zM11.001 14.999h1.002v1.002h-1.002zM5.001 14.999h1.002v1.002h-1.002zM2.001 14.999h1.002v1.002h-1.002zM22.998 17.996h1.002v1.002h-1.002zM19.998 17.996h1.002v1.002h-1.002zM17.001 17.996h1.002v1.002h-1.002zM11.001 17.996h1.002v1.002h-1.002zM2.001 17.996h1.002v1.002h-1.002z"></path>
</symbol>
<symbol id="icon-construction" viewBox="0 0 24 24">
<path d="M13.781 15.188l2.109-2.156 6 6-2.109 2.156zM17.484 9.984q0.984 0 1.781-0.469t1.266-1.266 0.469-1.734q0-0.469-0.117-0.867t-0.305-0.727l-2.672 2.672-1.5-1.5 2.672-2.672q-0.328-0.188-0.727-0.305t-0.867-0.117q-0.938 0-1.734 0.469t-1.266 1.266-0.469 1.781q0 0.563 0.188 1.125l-1.828 1.875-1.781-1.781 0.703-0.703-1.406-1.406 2.109-2.156q-0.563-0.563-1.336-0.75t-1.547 0-1.336 0.75l-3.563 3.563 1.406 1.406h-2.813l-0.703 0.703 3.516 3.563 0.703-0.703v-2.859l1.453 1.406 0.703-0.703 1.781 1.781-7.406 7.406 2.109 2.109 11.391-11.344q0.563 0.188 1.125 0.188z"></path>
</symbol>
<symbol id="icon-truck" viewBox="0 0 32 32">
<path d="M24.832 11.445c-0.186-0.278-0.498-0.445-0.832-0.445h-1c-0.553 0-1 0.447-1 1v6c0 0.553 0.447 1 1 1h4c0.553 0 1-0.447 1-1v-1.5c0-0.197-0.059-0.391-0.168-0.555l-3-4.5zM27 18h-4v-6h1l3 4.5v1.5zM31.496 15.336l-4-6c-0.558-0.837-1.492-1.336-2.496-1.336h-4v-2c0-1.654-1.346-3-3-3h-15c-1.654 0-3 1.346-3 3v11c0 1.654 1.346 3 3 3v0 3c0 1.654 1.346 3 3 3h1.142c0.447 1.721 2 3 3.859 3 1.857 0 3.41-1.279 3.857-3h5.282c0.447 1.721 2 3 3.859 3 1.857 0 3.41-1.279 3.857-3h1.144c1.654 0 3-1.346 3-3v-6c0-0.594-0.174-1.17-0.504-1.664zM3 18c-0.552 0-1-0.447-1-1v-11c0-0.553 0.448-1 1-1h15c0.553 0 1 0.447 1 1v11c0 0.553-0.447 1-1 1h-15zM11.001 27c-1.105 0-2-0.896-2-2s0.895-2 2-2c1.104 0 2 0.896 2 2s-0.897 2-2 2zM24 27c-1.105 0-2-0.896-2-2s0.895-2 2-2c1.104 0 2 0.896 2 2s-0.896 2-2 2zM30 23c0 0.553-0.447 1-1 1h-1.143c-0.447-1.721-2-3-3.857-3-1.859 0-3.412 1.279-3.859 3h-5.282c-0.447-1.721-2-3-3.857-3-1.859 0-3.412 1.279-3.859 3h-1.143c-0.552 0-1-0.447-1-1v-3h13c1.654 0 3-1.346 3-3v-7h4c0.334 0 0.646 0.167 0.832 0.445l4 6c0.109 0.164 0.168 0.358 0.168 0.555v6z"></path>
</symbol>
<symbol id="icon-target" viewBox="0 0 42 32">
<path d="M41.779 13.090c-0.225-0.189-0.562-0.159-0.752 0.068l-2.367 2.84c-0.051-0.016-0.103-0.032-0.16 0.002h-1.391l1.77-2.158c0.189-0.227 0.158-0.563-0.068-0.752s-0.563-0.159-0.752 0.068l-2.34 2.842h-1.579l1.77-2.158c0.189-0.227 0.158-0.563-0.068-0.752s-0.562-0.159-0.752 0.068l-2.34 2.842h-0.752c-0.019-8.841-7.187-16-15.998-16-8.822 0-16 7.178-16 16s7.178 16 16 16c8.473 0 15.41-6.626 15.948-15h0.803l2.34 2.842c0.105 0.127 0.258 0.192 0.41 0.192 0.121 0 0.242-0.040 0.342-0.124 0.227-0.188 0.258-0.525 0.068-0.752l-1.771-2.158h1.579l2.34 2.842c0.105 0.127 0.258 0.192 0.41 0.192 0.121 0 0.242-0.040 0.342-0.124 0.227-0.188 0.258-0.525 0.068-0.752l-1.77-2.158h1.391c0.057 0.034 0.109 0.018 0.161 0.002l2.367 2.84c0.105 0.127 0.258 0.192 0.41 0.192 0.121 0 0.242-0.040 0.342-0.124 0.227-0.188 0.258-0.525 0.068-0.752l-2.215-2.658 2.215-2.658c0.189-0.227 0.158-0.564-0.069-0.752zM16 31c-8.271 0-15-6.729-15-15s6.729-15 15-15c8.26 0 14.979 6.71 14.998 15h-3c-0.018-6.635-5.392-12-11.998-12-6.617 0-12 5.383-12 12s5.383 12 12 12c6.268 0 11.421-4.832 11.948-11h3c-0.535 7.823-7.026 14-14.948 14zM23.998 16c-0.018-4.429-3.598-8-7.998-8-4.411 0-8 3.589-8 8s3.589 8 8 8c4.060 0 7.416-3.043 7.925-7h3.022c-0.523 5.616-5.231 10-10.947 10-6.065 0-11-4.935-11-11s4.935-11 11-11c6.054 0 10.98 4.916 10.998 11h-3zM19.997 16c-0.019-2.224-1.802-4-3.997-4-2.206 0-4 1.794-4 4s1.794 4 4 4c1.846 0 3.388-1.263 3.847-3h3.068c-0.503 3.404-3.408 6-6.915 6-3.859 0-7-3.141-7-7s3.141-7 7-7c3.848 0 6.98 3.122 6.998 7h-3.001zM16.5 17h2.305c-0.423 1.178-1.516 2-2.805 2-1.654 0-3-1.346-3-3s1.346-3 3-3c1.643 0 2.978 1.328 2.997 3h-2.497c-0.295-0.034-0.534 0.205-0.534 0.5s0.239 0.534 0.534 0.5z"></path>
</symbol>
<symbol id="icon-global" viewBox="0 0 32 32">
<path d="M0.034 16.668c0.354 8.511 7.369 15.332 15.966 15.332s15.612-6.821 15.966-15.332c0.019-0.053 0.034-0.108 0.034-0.168 0-0.036-0.013-0.067-0.020-0.1 0.003-0.134 0.020-0.265 0.020-0.4 0-8.822-7.178-16-16-16s-16 7.178-16 16c0 0.135 0.017 0.266 0.020 0.4-0.007 0.033-0.020 0.064-0.020 0.1 0 0.060 0.015 0.115 0.034 0.168zM24.921 22.742c-1.319-0.552-2.735-0.979-4.215-1.271 0.158-1.453 0.251-2.962 0.28-4.47h4.98c-0.091 2.054-0.456 3.993-1.045 5.741zM26.965 17h3.984c-0.186 2.806-1.138 5.403-2.663 7.579-0.759-0.533-1.577-1.019-2.457-1.44 0.645-1.869 1.042-3.943 1.136-6.139zM12.389 22.286c1.178-0.184 2.387-0.286 3.611-0.286s2.433 0.102 3.61 0.286c-0.694 5.335-2.21 8.714-3.61 8.714s-2.916-3.379-3.611-8.714zM13.908 30.664c-2.751-0.882-5.078-3.471-6.482-6.984 1.246-0.525 2.586-0.935 3.99-1.217 0.459 3.496 1.298 6.542 2.492 8.201zM12.274 10.709c1.217 0.188 2.465 0.291 3.726 0.291s2.509-0.103 3.726-0.291c0.172 1.62 0.274 3.388 0.274 5.291h-8c0-1.903 0.102-3.671 0.274-5.291zM19.985 17c-0.028 1.525-0.118 2.961-0.26 4.291-1.216-0.188-2.463-0.291-3.725-0.291s-2.509 0.103-3.726 0.291c-0.173-1.626-0.237-3.057-0.26-4.291h7.971zM20.585 22.463c1.404 0.282 2.743 0.692 3.99 1.217-1.404 3.513-3.731 6.102-6.482 6.984 1.193-1.659 2.032-4.705 2.492-8.201zM21 16c0-1.836-0.102-3.696-0.294-5.47 1.48-0.292 2.896-0.72 4.215-1.271 0.684 2.029 1.079 4.315 1.079 6.741h-5zM20.585 9.537c-0.46-3.496-1.298-6.543-2.493-8.201 2.751 0.882 5.078 3.471 6.482 6.984-1.246 0.525-2.585 0.936-3.989 1.217zM19.611 9.714c-1.178 0.184-2.387 0.286-3.611 0.286s-2.433-0.102-3.611-0.286c0.695-5.335 2.211-8.714 3.611-8.714s2.916 3.379 3.611 8.714zM11.415 9.537c-1.404-0.282-2.743-0.692-3.99-1.217 1.404-3.513 3.731-6.102 6.482-6.984-1.193 1.659-2.032 4.705-2.492 8.201zM11.294 10.53c-0.192 1.774-0.294 3.634-0.294 5.47h-5c0-2.426 0.395-4.712 1.079-6.742 1.319 0.552 2.735 0.979 4.215 1.272zM11.014 17c0.029 1.508 0.122 3.017 0.28 4.471-1.48 0.292-2.896 0.72-4.215 1.271-0.589-1.748-0.954-3.687-1.045-5.742h4.98zM6.17 23.139c-0.88 0.422-1.697 0.907-2.456 1.44-1.525-2.176-2.477-4.772-2.663-7.579h3.984c0.094 2.196 0.491 4.27 1.135 6.139zM4.313 25.38c0.685-0.479 1.417-0.922 2.207-1.305 1.004 2.485 2.449 4.548 4.186 5.943-2.526-0.958-4.729-2.568-6.393-4.638zM21.294 30.017c1.738-1.394 3.182-3.458 4.186-5.943 0.79 0.384 1.522 0.826 2.207 1.305-1.664 2.071-3.867 3.681-6.393 4.638zM27 16c0-2.567-0.428-4.987-1.17-7.139 0.88-0.422 1.698-0.907 2.457-1.44 1.704 2.434 2.713 5.389 2.713 8.579h-4zM27.688 6.62c-0.685 0.479-1.417 0.921-2.207 1.305-1.004-2.485-2.449-4.549-4.186-5.943 2.525 0.958 4.728 2.568 6.393 4.638zM10.706 1.983c-1.738 1.394-3.182 3.458-4.186 5.943-0.791-0.384-1.522-0.827-2.207-1.306 1.664-2.070 3.867-3.68 6.393-4.637zM3.714 7.421c0.758 0.533 1.576 1.018 2.456 1.44-0.742 2.152-1.17 4.572-1.17 7.139h-4c0-3.19 1.009-6.145 2.714-8.579z"></path>
</symbol>
<symbol id="icon-office" viewBox="0 0 32 32">
<path d="M0 32h16v-32h-16v32zM10 4h4v4h-4v-4zM10 12h4v4h-4v-4zM10 20h4v4h-4v-4zM2 4h4v4h-4v-4zM2 12h4v4h-4v-4zM2 20h4v4h-4v-4zM18 10h14v2h-14zM18 32h4v-8h6v8h4v-18h-14z"></path>
</symbol>
<symbol id="icon-user" viewBox="0 0 32 32">
<path d="M18 22.082v-1.649c2.203-1.241 4-4.337 4-7.432 0-4.971 0-9-6-9s-6 4.029-6 9c0 3.096 1.797 6.191 4 7.432v1.649c-6.784 0.555-12 3.888-12 7.918h28c0-4.030-5.216-7.364-12-7.918z"></path>
</symbol>
<symbol id="icon-briefcase" viewBox="0 0 32 32">
<path d="M30 8h-8v-2c0-1.1-0.9-2-2-2h-8c-1.1 0-2 0.9-2 2v2h-8c-1.1 0-2 0.9-2 2v18c0 1.1 0.9 2 2 2h28c1.1 0 2-0.9 2-2v-18c0-1.1-0.9-2-2-2zM12 6.004c0.001-0.001 0.002-0.003 0.004-0.004h7.993c0.001 0.001 0.003 0.002 0.004 0.004v1.996h-8v-1.996zM30 16h-4v3c0 0.55-0.45 1-1 1h-2c-0.55 0-1-0.45-1-1v-3h-12v3c0 0.55-0.45 1-1 1h-2c-0.55 0-1-0.45-1-1v-3h-4v-2h28v2z"></path>
</symbol>
<symbol id="icon-arrow-left2" viewBox="0 0 32 32">
<path d="M12.586 27.414l-10-10c-0.781-0.781-0.781-2.047 0-2.828l10-10c0.781-0.781 2.047-0.781 2.828 0s0.781 2.047 0 2.828l-6.586 6.586h19.172c1.105 0 2 0.895 2 2s-0.895 2-2 2h-19.172l6.586 6.586c0.39 0.39 0.586 0.902 0.586 1.414s-0.195 1.024-0.586 1.414c-0.781 0.781-2.047 0.781-2.828 0z"></path>
</symbol>
<symbol id="icon-arrow-right2" viewBox="0 0 32 32">
<path d="M19.414 27.414l10-10c0.781-0.781 0.781-2.047 0-2.828l-10-10c-0.781-0.781-2.047-0.781-2.828 0s-0.781 2.047 0 2.828l6.586 6.586h-19.172c-1.105 0-2 0.895-2 2s0.895 2 2 2h19.172l-6.586 6.586c-0.39 0.39-0.586 0.902-0.586 1.414s0.195 1.024 0.586 1.414c0.781 0.781 2.047 0.781 2.828 0z"></path>
</symbol>
<symbol id="icon-chevron-small-down" viewBox="0 0 20 20">
<path d="M13.418 7.859c0.271-0.268 0.709-0.268 0.978 0s0.272 0.701 0 0.969l-3.908 3.83c-0.27 0.268-0.707 0.268-0.979 0l-3.908-3.83c-0.27-0.267-0.27-0.701 0-0.969s0.709-0.268 0.978 0l3.421 3.141 3.418-3.141z"></path>
</symbol>
<symbol id="icon-center_focus_strong" viewBox="0 0 24 24">
<path d="M18.984 18.984v-3.984h2.016v3.984q0 0.797-0.609 1.406t-1.406 0.609h-3.984v-2.016h3.984zM18.984 3q0.797 0 1.406 0.609t0.609 1.406v3.984h-2.016v-3.984h-3.984v-2.016h3.984zM5.016 5.016v3.984h-2.016v-3.984q0-0.797 0.609-1.406t1.406-0.609h3.984v2.016h-3.984zM5.016 15v3.984h3.984v2.016h-3.984q-0.797 0-1.406-0.609t-0.609-1.406v-3.984h2.016zM12 8.016q1.641 0 2.813 1.172t1.172 2.813-1.172 2.813-2.813 1.172-2.813-1.172-1.172-2.813 1.172-2.813 2.813-1.172z"></path>
</symbol>
<symbol id="icon-bathtub" viewBox="0 0 24 24">
<path d="M20.016 12.984h1.969v6q0 0.797-0.586 1.406t-1.383 0.609q0 0.422-0.305 0.703t-0.727 0.281h-13.969q-0.422 0-0.727-0.281t-0.305-0.703q-0.797 0-1.383-0.609t-0.586-1.406v-6h3v-0.75q0-0.891 0.68-1.57t1.57-0.68q0.938 0 1.688 0.75l1.359 1.547q0.281 0.328 0.844 0.703h6.844v-8.156q0-0.328-0.234-0.586t-0.609-0.258q-0.328 0-0.563 0.234l-1.266 1.266q0.094 0.375 0.094 0.516 0 0.516-0.328 1.078l-2.766-2.766q0.563-0.328 1.078-0.328 0.234 0 0.516 0.094l1.266-1.266q0.797-0.797 1.969-0.797t2.016 0.82 0.844 1.992v8.156zM5.016 6.984q0-0.844 0.563-1.406t1.406-0.563 1.43 0.563 0.586 1.406-0.586 1.43-1.43 0.586-1.406-0.586-0.563-1.43z"></path>
</symbol>
<symbol id="icon-bed" viewBox="0 0 32 28">
<path d="M4 16h27c0.547 0 1 0.453 1 1v7h-4v-4h-24v4h-4v-19c0-0.547 0.453-1 1-1h2c0.547 0 1 0.453 1 1v11zM13 11c0-2.203-1.797-4-4-4s-4 1.797-4 4 1.797 4 4 4 4-1.797 4-4zM32 15v-1c0-3.313-2.688-6-6-6h-11c-0.547 0-1 0.453-1 1v6h18z"></path>
</symbol>
<symbol id="icon-construction" viewBox="0 0 24 24">
<path d="M13.781 15.188l2.109-2.156 6 6-2.109 2.156zM17.484 9.984q0.984 0 1.781-0.469t1.266-1.266 0.469-1.734q0-0.469-0.117-0.867t-0.305-0.727l-2.672 2.672-1.5-1.5 2.672-2.672q-0.328-0.188-0.727-0.305t-0.867-0.117q-0.938 0-1.734 0.469t-1.266 1.266-0.469 1.781q0 0.563 0.188 1.125l-1.828 1.875-1.781-1.781 0.703-0.703-1.406-1.406 2.109-2.156q-0.563-0.563-1.336-0.75t-1.547 0-1.336 0.75l-3.563 3.563 1.406 1.406h-2.813l-0.703 0.703 3.516 3.563 0.703-0.703v-2.859l1.453 1.406 0.703-0.703 1.781 1.781-7.406 7.406 2.109 2.109 11.391-11.344q0.563 0.188 1.125 0.188z"></path>
</symbol>
<symbol id="icon-mapmarker" viewBox="0 0 24 24">
<path d="M11.999 0c-5.027 0-9.103 4.076-9.103 9.104 0 5.029 7.15 14.896 9.104 14.896 1.445 0 9.105-9.867 9.105-14.896-0.001-5.028-4.077-9.104-9.106-9.104zM11.958 13.584c-2.555 0-4.625-2.070-4.625-4.625s2.070-4.625 4.625-4.625 4.625 2.070 4.625 4.625-2.070 4.625-4.625 4.625z"></path>
</symbol>
<symbol id="icon-cone" viewBox="0 0 32 32">
<path d="M27.023 28.99h-22.047l0.015-1.895 2.56-2.207c0 0 4.609 1.52 8.438 1.52 3.773 0 8.523-1.52 8.523-1.52l2.512 2.18v1.922zM8.183 24.119l1.6-5.076h12.413l1.6 5.076c0 0-4.834 1.441-7.77 1.441-2.865 0.001-7.843-1.441-7.843-1.441zM10.73 16.037l1.599-5.075h7.322l1.598 5.075h-10.519zM14.834 3.009h2.31l1.559 4.945h-5.427l1.558-4.945z"></path>
</symbol>
<symbol id="icon-favorite" viewBox="0 0 24 24">
<path d="M12 21.328l-1.453-1.313q-2.484-2.25-3.609-3.328t-2.508-2.672-1.898-2.883-0.516-2.648q0-2.297 1.57-3.891t3.914-1.594q2.719 0 4.5 2.109 1.781-2.109 4.5-2.109 2.344 0 3.914 1.594t1.57 3.891q0 1.828-1.219 3.797t-2.648 3.422-4.664 4.359z"></path>
</symbol>
<symbol id="icon-engineering" viewBox="0 0 24 24">
<path d="M9 15q-0.797 0-1.852 0.164t-2.133 0.492-1.992 0.797-1.477 1.102-0.563 1.43v2.016h16.031v-2.016q0-0.797-0.563-1.43t-1.477-1.102-1.992-0.797-2.133-0.492-1.852-0.164zM22.078 6.844q0.047-0.094 0.047-0.164v-0.164q0-0.188-0.047-0.375l0.75-0.563q0.141-0.094 0.047-0.234l-0.703-1.172q-0.047-0.141-0.234-0.094l-0.844 0.328q-0.234-0.188-0.563-0.328l-0.141-0.938q-0.047-0.141-0.188-0.141h-1.406q-0.141 0-0.188 0.141l-0.094 0.938q-0.328 0.141-0.609 0.328l-0.844-0.328q-0.188-0.047-0.234 0.094l-0.703 1.172q-0.047 0.141 0.047 0.234l0.75 0.563q-0.047 0.188-0.047 0.375 0 0.141 0.047 0.328l-0.75 0.563q-0.141 0.094-0.047 0.234l0.703 1.219q0.047 0.094 0.234 0.094l0.844-0.375q0.234 0.188 0.609 0.328l0.094 0.938q0.047 0.141 0.188 0.141h1.406q0.141 0 0.188-0.141l0.094-0.938q0.328-0.094 0.609-0.328l0.844 0.375q0.188 0.047 0.234-0.094l0.703-1.219q0.047-0.141-0.047-0.234zM19.5 7.734q-0.516 0-0.891-0.352t-0.375-0.867 0.375-0.891 0.891-0.375 0.891 0.375 0.375 0.891-0.375 0.867-0.891 0.352zM19.922 11.672l-0.516-0.844q-0.047-0.141-0.141-0.094l-0.609 0.281q-0.188-0.188-0.422-0.234l-0.094-0.703q-0.047-0.094-0.141-0.094h-0.984q-0.141 0-0.141 0.141l-0.094 0.656q-0.094 0.047-0.211 0.094t-0.211 0.141l-0.609-0.234q-0.094-0.047-0.141 0.047l-0.516 0.844q-0.047 0.094 0.047 0.188l0.516 0.422v0.469l-0.516 0.422q-0.094 0.047-0.047 0.141l0.516 0.891q0.047 0.094 0.141 0.047l0.609-0.281q0.188 0.188 0.422 0.281l0.094 0.656q0 0.094 0.141 0.094h0.984q0.141 0 0.141-0.094l0.047-0.656q0.141-0.047 0.234-0.117t0.188-0.164l0.656 0.281q0.094 0.047 0.141-0.047l0.516-0.891q0.047-0.094-0.047-0.141l-0.516-0.422v-0.469l0.516-0.422q0.094-0.094 0.047-0.188zM17.484 13.313q-0.328 0-0.563-0.234t-0.234-0.563q0-0.375 0.234-0.609t0.563-0.234q0.375 0 0.609 0.234t0.234 0.609q0 0.328-0.234 0.563t-0.609 0.234zM4.734 9h8.531q0.188 0 0.352-0.141t0.164-0.328v-0.047q0-0.188-0.164-0.328t-0.352-0.141h-0.281q0-1.125-0.539-2.039t-1.43-1.43v0.938q0 0.234-0.164 0.375t-0.352 0.141-0.352-0.141-0.164-0.375v-1.359l-0.469-0.094t-0.516-0.047-0.516 0.047l-0.469 0.094v1.359q0 0.234-0.164 0.375t-0.352 0.141-0.352-0.141-0.164-0.375v-0.938q-0.891 0.516-1.43 1.43t-0.539 2.039h-0.281q-0.188 0-0.328 0.141t-0.141 0.328v0.047q0 0.188 0.141 0.328t0.328 0.141zM9 12.984q1.406 0 2.461-0.844t1.383-2.156h-7.688q0.328 1.313 1.383 2.156t2.461 0.844z"></path>
</symbol>
<symbol id="icon-star_rate" viewBox="0 0 24 24">
<path d="M14.438 9.984l-2.438-7.969-2.438 7.969h-7.547l6.188 4.406-2.391 7.594 6.188-4.688 6.188 4.688-2.344-7.594 6.141-4.406h-7.547z"></path>
</symbol>
<symbol id="icon-facebook2" viewBox="0 0 32 32">
<path d="M29 0h-26c-1.65 0-3 1.35-3 3v26c0 1.65 1.35 3 3 3h13v-14h-4v-4h4v-2c0-3.306 2.694-6 6-6h4v4h-4c-1.1 0-2 0.9-2 2v2h6l-1 4h-5v14h9c1.65 0 3-1.35 3-3v-26c0-1.65-1.35-3-3-3z"></path>
</symbol>
<symbol id="icon-instagram" viewBox="0 0 32 32">
<path d="M16 2.881c4.275 0 4.781 0.019 6.462 0.094 1.563 0.069 2.406 0.331 2.969 0.55 0.744 0.288 1.281 0.638 1.837 1.194 0.563 0.563 0.906 1.094 1.2 1.838 0.219 0.563 0.481 1.412 0.55 2.969 0.075 1.688 0.094 2.194 0.094 6.463s-0.019 4.781-0.094 6.463c-0.069 1.563-0.331 2.406-0.55 2.969-0.288 0.744-0.637 1.281-1.194 1.837-0.563 0.563-1.094 0.906-1.837 1.2-0.563 0.219-1.413 0.481-2.969 0.55-1.688 0.075-2.194 0.094-6.463 0.094s-4.781-0.019-6.463-0.094c-1.563-0.069-2.406-0.331-2.969-0.55-0.744-0.288-1.281-0.637-1.838-1.194-0.563-0.563-0.906-1.094-1.2-1.837-0.219-0.563-0.481-1.413-0.55-2.969-0.075-1.688-0.094-2.194-0.094-6.463s0.019-4.781 0.094-6.463c0.069-1.563 0.331-2.406 0.55-2.969 0.288-0.744 0.638-1.281 1.194-1.838 0.563-0.563 1.094-0.906 1.838-1.2 0.563-0.219 1.412-0.481 2.969-0.55 1.681-0.075 2.188-0.094 6.463-0.094zM16 0c-4.344 0-4.887 0.019-6.594 0.094-1.7 0.075-2.869 0.35-3.881 0.744-1.056 0.412-1.95 0.956-2.837 1.85-0.894 0.888-1.438 1.781-1.85 2.831-0.394 1.019-0.669 2.181-0.744 3.881-0.075 1.713-0.094 2.256-0.094 6.6s0.019 4.887 0.094 6.594c0.075 1.7 0.35 2.869 0.744 3.881 0.413 1.056 0.956 1.95 1.85 2.837 0.887 0.887 1.781 1.438 2.831 1.844 1.019 0.394 2.181 0.669 3.881 0.744 1.706 0.075 2.25 0.094 6.594 0.094s4.888-0.019 6.594-0.094c1.7-0.075 2.869-0.35 3.881-0.744 1.050-0.406 1.944-0.956 2.831-1.844s1.438-1.781 1.844-2.831c0.394-1.019 0.669-2.181 0.744-3.881 0.075-1.706 0.094-2.25 0.094-6.594s-0.019-4.887-0.094-6.594c-0.075-1.7-0.35-2.869-0.744-3.881-0.394-1.063-0.938-1.956-1.831-2.844-0.887-0.887-1.781-1.438-2.831-1.844-1.019-0.394-2.181-0.669-3.881-0.744-1.712-0.081-2.256-0.1-6.6-0.1v0z"></path>
<path d="M16 7.781c-4.537 0-8.219 3.681-8.219 8.219s3.681 8.219 8.219 8.219 8.219-3.681 8.219-8.219c0-4.537-3.681-8.219-8.219-8.219zM16 21.331c-2.944 0-5.331-2.387-5.331-5.331s2.387-5.331 5.331-5.331c2.944 0 5.331 2.387 5.331 5.331s-2.387 5.331-5.331 5.331z"></path>
<path d="M26.462 7.456c0 1.060-0.859 1.919-1.919 1.919s-1.919-0.859-1.919-1.919c0-1.060 0.859-1.919 1.919-1.919s1.919 0.859 1.919 1.919z"></path>
</symbol>
<symbol id="icon-twitter" viewBox="0 0 32 32">
<path d="M32 7.075c-1.175 0.525-2.444 0.875-3.769 1.031 1.356-0.813 2.394-2.1 2.887-3.631-1.269 0.75-2.675 1.3-4.169 1.594-1.2-1.275-2.906-2.069-4.794-2.069-3.625 0-6.563 2.938-6.563 6.563 0 0.512 0.056 1.012 0.169 1.494-5.456-0.275-10.294-2.888-13.531-6.862-0.563 0.969-0.887 2.1-0.887 3.3 0 2.275 1.156 4.287 2.919 5.463-1.075-0.031-2.087-0.331-2.975-0.819 0 0.025 0 0.056 0 0.081 0 3.181 2.263 5.838 5.269 6.437-0.55 0.15-1.131 0.231-1.731 0.231-0.425 0-0.831-0.044-1.237-0.119 0.838 2.606 3.263 4.506 6.131 4.563-2.25 1.762-5.075 2.813-8.156 2.813-0.531 0-1.050-0.031-1.569-0.094 2.913 1.869 6.362 2.95 10.069 2.95 12.075 0 18.681-10.006 18.681-18.681 0-0.287-0.006-0.569-0.019-0.85 1.281-0.919 2.394-2.075 3.275-3.394z"></path>
</symbol>
<symbol id="icon-quote" viewBox="0 0 20 20">
<path d="M5.315 3.401c-1.61 0-2.916 1.343-2.916 3s1.306 3 2.916 3c2.915 0 0.972 5.799-2.916 5.799v1.4c6.939 0.001 9.658-13.199 2.916-13.199zM13.715 3.401c-1.609 0-2.915 1.343-2.915 3s1.306 3 2.915 3c2.916 0 0.973 5.799-2.915 5.799v1.4c6.938 0.001 9.657-13.199 2.915-13.199z"></path>
</symbol>
</defs>
</svg>
